# procedurally generated dense-city asset
# generator urban_scenes.build_city_mesh seed=101 version=0.3.0
o building_000
v 8.359 8.785 0.000
v 23.641 8.785 0.000
v 23.641 23.215 0.000
v 8.359 23.215 0.000
v 8.359 8.785 30.362
v 23.641 8.785 30.362
v 23.641 23.215 30.362
v 8.359 23.215 30.362
f 1 2 3
f 1 3 4
f 5 6 7
f 5 7 8
f 1 2 6
f 1 6 5
f 2 3 7
f 2 7 6
f 3 4 8
f 3 8 7
f 4 1 5
f 4 5 8
o building_001
v 8.869 32.364 0.000
v 23.131 32.364 0.000
v 23.131 47.636 0.000
v 8.869 47.636 0.000
v 8.869 32.364 27.430
v 23.131 32.364 27.430
v 23.131 47.636 27.430
v 8.869 47.636 27.430
f 9 10 11
f 9 11 12
f 13 14 15
f 13 15 16
f 9 10 14
f 9 14 13
f 10 11 15
f 10 15 14
f 11 12 16
f 11 16 15
f 12 9 13
f 12 13 16
o building_002
v 8.681 56.471 0.000
v 23.319 56.471 0.000
v 23.319 62.000 0.000
v 8.681 62.000 0.000
v 8.681 56.471 55.582
v 23.319 56.471 55.582
v 23.319 62.000 55.582
v 8.681 62.000 55.582
f 17 18 19
f 17 19 20
f 21 22 23
f 21 23 24
f 17 18 22
f 17 22 21
f 18 19 23
f 18 23 22
f 19 20 24
f 19 24 23
f 20 17 21
f 20 21 24
o building_003
v 8.390 80.355 0.000
v 23.610 80.355 0.000
v 23.610 95.645 0.000
v 8.390 95.645 0.000
v 8.390 80.355 32.575
v 23.610 80.355 32.575
v 23.610 95.645 32.575
v 8.390 95.645 32.575
f 25 26 27
f 25 27 28
f 29 30 31
f 29 31 32
f 25 26 30
f 25 30 29
f 26 27 31
f 26 31 30
f 27 28 32
f 27 32 31
f 28 25 29
f 28 29 32
o building_004
v 8.371 104.055 0.000
v 23.629 104.055 0.000
v 23.629 110.000 0.000
v 8.371 110.000 0.000
v 8.371 104.055 53.320
v 23.629 104.055 53.320
v 23.629 110.000 53.320
v 8.371 110.000 53.320
f 33 34 35
f 33 35 36
f 37 38 39
f 37 39 40
f 33 34 38
f 33 38 37
f 34 35 39
f 34 39 38
f 35 36 40
f 35 40 39
f 36 33 37
f 36 37 40
o building_005
v 8.667 128.471 0.000
v 23.333 128.471 0.000
v 23.333 143.529 0.000
v 8.667 143.529 0.000
v 8.667 128.471 53.291
v 23.333 128.471 53.291
v 23.333 143.529 53.291
v 8.667 143.529 53.291
f 41 42 43
f 41 43 44
f 45 46 47
f 45 47 48
f 41 42 46
f 41 46 45
f 42 43 47
f 42 47 46
f 43 44 48
f 43 48 47
f 44 41 45
f 44 45 48
o building_006
v 32.568 8.956 0.000
v 47.432 8.956 0.000
v 47.432 23.044 0.000
v 32.568 23.044 0.000
v 32.568 8.956 33.513
v 47.432 8.956 33.513
v 47.432 23.044 33.513
v 32.568 23.044 33.513
f 49 50 51
f 49 51 52
f 53 54 55
f 53 55 56
f 49 50 54
f 49 54 53
f 50 51 55
f 50 55 54
f 51 52 56
f 51 56 55
f 52 49 53
f 52 53 56
o building_007
v 32.518 32.902 0.000
v 47.482 32.902 0.000
v 47.482 47.098 0.000
v 32.518 47.098 0.000
v 32.518 32.902 34.722
v 47.482 32.902 34.722
v 47.482 47.098 34.722
v 32.518 47.098 34.722
f 57 58 59
f 57 59 60
f 61 62 63
f 61 63 64
f 57 58 62
f 57 62 61
f 58 59 63
f 58 63 62
f 59 60 64
f 59 64 63
f 60 57 61
f 60 61 64
o building_008
v 32.092 56.492 0.000
v 47.908 56.492 0.000
v 47.908 62.000 0.000
v 32.092 62.000 0.000
v 32.092 56.492 21.912
v 47.908 56.492 21.912
v 47.908 62.000 21.912
v 32.092 62.000 21.912
f 65 66 67
f 65 67 68
f 69 70 71
f 69 71 72
f 65 66 70
f 65 70 69
f 66 67 71
f 66 71 70
f 67 68 72
f 67 72 71
f 68 65 69
f 68 69 72
o building_009
v 32.699 104.179 0.000
v 47.301 104.179 0.000
v 47.301 119.821 0.000
v 32.699 119.821 0.000
v 32.699 104.179 43.310
v 47.301 104.179 43.310
v 47.301 119.821 43.310
v 32.699 119.821 43.310
f 73 74 75
f 73 75 76
f 77 78 79
f 77 79 80
f 73 74 78
f 73 78 77
f 74 75 79
f 74 79 78
f 75 76 80
f 75 80 79
f 76 73 77
f 76 77 80
o building_010
v 32.458 128.775 0.000
v 47.542 128.775 0.000
v 47.542 134.000 0.000
v 32.458 134.000 0.000
v 32.458 128.775 45.073
v 47.542 128.775 45.073
v 47.542 134.000 45.073
v 32.458 134.000 45.073
f 81 82 83
f 81 83 84
f 85 86 87
f 85 87 88
f 81 82 86
f 81 86 85
f 82 83 87
f 82 87 86
f 83 84 88
f 83 88 87
f 84 81 85
f 84 85 88
o building_011
v 56.047 8.908 0.000
v 71.953 8.908 0.000
v 71.953 14.000 0.000
v 56.047 14.000 0.000
v 56.047 8.908 46.360
v 71.953 8.908 46.360
v 71.953 14.000 46.360
v 56.047 14.000 46.360
f 89 90 91
f 89 91 92
f 93 94 95
f 93 95 96
f 89 90 94
f 89 94 93
f 90 91 95
f 90 95 94
f 91 92 96
f 91 96 95
f 92 89 93
f 92 93 96
o building_012
v 56.901 80.783 0.000
v 71.099 80.783 0.000
v 71.099 95.217 0.000
v 56.901 95.217 0.000
v 56.901 80.783 45.277
v 71.099 80.783 45.277
v 71.099 95.217 45.277
v 56.901 95.217 45.277
f 97 98 99
f 97 99 100
f 101 102 103
f 101 103 104
f 97 98 102
f 97 102 101
f 98 99 103
f 98 103 102
f 99 100 104
f 99 104 103
f 100 97 101
f 100 101 104
o building_013
v 56.528 104.482 0.000
v 71.472 104.482 0.000
v 71.472 119.518 0.000
v 56.528 119.518 0.000
v 56.528 104.482 37.077
v 71.472 104.482 37.077
v 71.472 119.518 37.077
v 56.528 119.518 37.077
f 105 106 107
f 105 107 108
f 109 110 111
f 109 111 112
f 105 106 110
f 105 110 109
f 106 107 111
f 106 111 110
f 107 108 112
f 107 112 111
f 108 105 109
f 108 109 112
o building_014
v 56.359 128.925 0.000
v 71.641 128.925 0.000
v 71.641 143.075 0.000
v 56.359 143.075 0.000
v 56.359 128.925 59.659
v 71.641 128.925 59.659
v 71.641 143.075 59.659
v 56.359 143.075 59.659
f 113 114 115
f 113 115 116
f 117 118 119
f 117 119 120
f 113 114 118
f 113 118 117
f 114 115 119
f 114 119 118
f 115 116 120
f 115 120 119
f 116 113 117
f 116 117 120
o building_015
v 80.870 8.477 0.000
v 95.130 8.477 0.000
v 95.130 23.523 0.000
v 80.870 23.523 0.000
v 80.870 8.477 40.756
v 95.130 8.477 40.756
v 95.130 23.523 40.756
v 80.870 23.523 40.756
f 121 122 123
f 121 123 124
f 125 126 127
f 125 127 128
f 121 122 126
f 121 126 125
f 122 123 127
f 122 127 126
f 123 124 128
f 123 128 127
f 124 121 125
f 124 125 128
o building_016
v 80.604 56.105 0.000
v 95.396 56.105 0.000
v 95.396 71.895 0.000
v 80.604 71.895 0.000
v 80.604 56.105 22.764
v 95.396 56.105 22.764
v 95.396 71.895 22.764
v 80.604 71.895 22.764
f 129 130 131
f 129 131 132
f 133 134 135
f 133 135 136
f 129 130 134
f 129 134 133
f 130 131 135
f 130 135 134
f 131 132 136
f 131 136 135
f 132 129 133
f 132 133 136
o building_017
v 80.670 80.465 0.000
v 95.330 80.465 0.000
v 95.330 86.000 0.000
v 80.670 86.000 0.000
v 80.670 80.465 44.135
v 95.330 80.465 44.135
v 95.330 86.000 44.135
v 80.670 86.000 44.135
f 137 138 139
f 137 139 140
f 141 142 143
f 141 143 144
f 137 138 142
f 137 142 141
f 138 139 143
f 138 143 142
f 139 140 144
f 139 144 143
f 140 137 141
f 140 141 144
o building_018
v 80.381 104.163 0.000
v 95.619 104.163 0.000
v 95.619 110.000 0.000
v 80.381 110.000 0.000
v 80.381 104.163 59.710
v 95.619 104.163 59.710
v 95.619 110.000 59.710
v 80.381 110.000 59.710
f 145 146 147
f 145 147 148
f 149 150 151
f 149 151 152
f 145 146 150
f 145 150 149
f 146 147 151
f 146 151 150
f 147 148 152
f 147 152 151
f 148 145 149
f 148 149 152
o building_019
v 80.587 128.781 0.000
v 95.413 128.781 0.000
v 95.413 143.219 0.000
v 80.587 143.219 0.000
v 80.587 128.781 24.475
v 95.413 128.781 24.475
v 95.413 143.219 24.475
v 80.587 143.219 24.475
f 153 154 155
f 153 155 156
f 157 158 159
f 157 159 160
f 153 154 158
f 153 158 157
f 154 155 159
f 154 159 158
f 155 156 160
f 155 160 159
f 156 153 157
f 156 157 160
o building_020
v 104.405 8.403 0.000
v 119.595 8.403 0.000
v 119.595 14.000 0.000
v 104.405 14.000 0.000
v 104.405 8.403 35.678
v 119.595 8.403 35.678
v 119.595 14.000 35.678
v 104.405 14.000 35.678
f 161 162 163
f 161 163 164
f 165 166 167
f 165 167 168
f 161 162 166
f 161 166 165
f 162 163 167
f 162 167 166
f 163 164 168
f 163 168 167
f 164 161 165
f 164 165 168
o building_021
v 104.375 56.715 0.000
v 119.625 56.715 0.000
v 119.625 71.285 0.000
v 104.375 71.285 0.000
v 104.375 56.715 36.486
v 119.625 56.715 36.486
v 119.625 71.285 36.486
v 104.375 71.285 36.486
f 169 170 171
f 169 171 172
f 173 174 175
f 173 175 176
f 169 170 174
f 169 174 173
f 170 171 175
f 170 175 174
f 171 172 176
f 171 176 175
f 172 169 173
f 172 173 176
o building_022
v 104.032 80.655 0.000
v 119.968 80.655 0.000
v 119.968 86.000 0.000
v 104.032 86.000 0.000
v 104.032 80.655 27.862
v 119.968 80.655 27.862
v 119.968 86.000 27.862
v 104.032 86.000 27.862
f 177 178 179
f 177 179 180
f 181 182 183
f 181 183 184
f 177 178 182
f 177 182 181
f 178 179 183
f 178 183 182
f 179 180 184
f 179 184 183
f 180 177 181
f 180 181 184
o building_023
v 104.376 104.362 0.000
v 119.624 104.362 0.000
v 119.624 119.638 0.000
v 104.376 119.638 0.000
v 104.376 104.362 29.329
v 119.624 104.362 29.329
v 119.624 119.638 29.329
v 104.376 119.638 29.329
f 185 186 187
f 185 187 188
f 189 190 191
f 189 191 192
f 185 186 190
f 185 190 189
f 186 187 191
f 186 191 190
f 187 188 192
f 187 192 191
f 188 185 189
f 188 189 192
o building_024
v 104.307 128.695 0.000
v 119.693 128.695 0.000
v 119.693 134.000 0.000
v 104.307 134.000 0.000
v 104.307 128.695 33.998
v 119.693 128.695 33.998
v 119.693 134.000 33.998
v 104.307 134.000 33.998
f 193 194 195
f 193 195 196
f 197 198 199
f 197 199 200
f 193 194 198
f 193 198 197
f 194 195 199
f 194 199 198
f 195 196 200
f 195 200 199
f 196 193 197
f 196 197 200
o building_025
v 128.641 8.475 0.000
v 143.359 8.475 0.000
v 143.359 14.000 0.000
v 128.641 14.000 0.000
v 128.641 8.475 18.952
v 143.359 8.475 18.952
v 143.359 14.000 18.952
v 128.641 14.000 18.952
f 201 202 203
f 201 203 204
f 205 206 207
f 205 207 208
f 201 202 206
f 201 206 205
f 202 203 207
f 202 207 206
f 203 204 208
f 203 208 207
f 204 201 205
f 204 205 208
o building_026
v 128.921 32.979 0.000
v 143.079 32.979 0.000
v 143.079 47.021 0.000
v 128.921 47.021 0.000
v 128.921 32.979 42.918
v 143.079 32.979 42.918
v 143.079 47.021 42.918
v 128.921 47.021 42.918
f 209 210 211
f 209 211 212
f 213 214 215
f 213 215 216
f 209 210 214
f 209 214 213
f 210 211 215
f 210 215 214
f 211 212 216
f 211 216 215
f 212 209 213
f 212 213 216
o building_027
v 128.828 56.583 0.000
v 143.172 56.583 0.000
v 143.172 62.000 0.000
v 128.828 62.000 0.000
v 128.828 56.583 30.392
v 143.172 56.583 30.392
v 143.172 62.000 30.392
v 128.828 62.000 30.392
f 217 218 219
f 217 219 220
f 221 222 223
f 221 223 224
f 217 218 222
f 217 222 221
f 218 219 223
f 218 223 222
f 219 220 224
f 219 224 223
f 220 217 221
f 220 221 224
o building_028
v 128.671 80.770 0.000
v 143.329 80.770 0.000
v 143.329 86.000 0.000
v 128.671 86.000 0.000
v 128.671 80.770 57.013
v 143.329 80.770 57.013
v 143.329 86.000 57.013
v 128.671 86.000 57.013
f 225 226 227
f 225 227 228
f 229 230 231
f 229 231 232
f 225 226 230
f 225 230 229
f 226 227 231
f 226 231 230
f 227 228 232
f 227 232 231
f 228 225 229
f 228 229 232
o building_029
v 128.805 104.198 0.000
v 143.195 104.198 0.000
v 143.195 110.000 0.000
v 128.805 110.000 0.000
v 128.805 104.198 48.837
v 143.195 104.198 48.837
v 143.195 110.000 48.837
v 128.805 110.000 48.837
f 233 234 235
f 233 235 236
f 237 238 239
f 237 239 240
f 233 234 238
f 233 238 237
f 234 235 239
f 234 239 238
f 235 236 240
f 235 240 239
f 236 233 237
f 236 237 240
o building_030
v 128.347 128.100 0.000
v 143.653 128.100 0.000
v 143.653 143.900 0.000
v 128.347 143.900 0.000
v 128.347 128.100 53.185
v 143.653 128.100 53.185
v 143.653 143.900 53.185
v 128.347 143.900 53.185
f 241 242 243
f 241 243 244
f 245 246 247
f 245 247 248
f 241 242 246
f 241 246 245
f 242 243 247
f 242 247 246
f 243 244 248
f 243 248 247
f 244 241 245
f 244 245 248
