# procedurally generated dense-city asset
# generator urban_scenes.build_city_mesh seed=303 version=0.3.0
o building_000
v 8.417 8.808 0.000
v 23.583 8.808 0.000
v 23.583 14.000 0.000
v 8.417 14.000 0.000
v 8.417 8.808 52.263
v 23.583 8.808 52.263
v 23.583 14.000 52.263
v 8.417 14.000 52.263
f 1 2 3
f 1 3 4
f 5 6 7
f 5 7 8
f 1 2 6
f 1 6 5
f 2 3 7
f 2 7 6
f 3 4 8
f 3 8 7
f 4 1 5
f 4 5 8
o building_001
v 8.839 56.199 0.000
v 23.161 56.199 0.000
v 23.161 71.801 0.000
v 8.839 71.801 0.000
v 8.839 56.199 32.412
v 23.161 56.199 32.412
v 23.161 71.801 32.412
v 8.839 71.801 32.412
f 9 10 11
f 9 11 12
f 13 14 15
f 13 15 16
f 9 10 14
f 9 14 13
f 10 11 15
f 10 15 14
f 11 12 16
f 11 16 15
f 12 9 13
f 12 13 16
o building_002
v 8.921 80.557 0.000
v 23.079 80.557 0.000
v 23.079 95.443 0.000
v 8.921 95.443 0.000
v 8.921 80.557 40.449
v 23.079 80.557 40.449
v 23.079 95.443 40.449
v 8.921 95.443 40.449
f 17 18 19
f 17 19 20
f 21 22 23
f 21 23 24
f 17 18 22
f 17 22 21
f 18 19 23
f 18 23 22
f 19 20 24
f 19 24 23
f 20 17 21
f 20 21 24
o building_003
v 8.264 104.947 0.000
v 23.736 104.947 0.000
v 23.736 110.000 0.000
v 8.264 110.000 0.000
v 8.264 104.947 18.410
v 23.736 104.947 18.410
v 23.736 110.000 18.410
v 8.264 110.000 18.410
f 25 26 27
f 25 27 28
f 29 30 31
f 29 31 32
f 25 26 30
f 25 30 29
f 26 27 31
f 26 31 30
f 27 28 32
f 27 32 31
f 28 25 29
f 28 29 32
o building_004
v 8.339 128.463 0.000
v 23.661 128.463 0.000
v 23.661 134.000 0.000
v 8.339 134.000 0.000
v 8.339 128.463 38.476
v 23.661 128.463 38.476
v 23.661 134.000 38.476
v 8.339 134.000 38.476
f 33 34 35
f 33 35 36
f 37 38 39
f 37 39 40
f 33 34 38
f 33 38 37
f 34 35 39
f 34 39 38
f 35 36 40
f 35 40 39
f 36 33 37
f 36 37 40
o building_005
v 32.631 8.007 0.000
v 47.369 8.007 0.000
v 47.369 23.993 0.000
v 32.631 23.993 0.000
v 32.631 8.007 42.367
v 47.369 8.007 42.367
v 47.369 23.993 42.367
v 32.631 23.993 42.367
f 41 42 43
f 41 43 44
f 45 46 47
f 45 47 48
f 41 42 46
f 41 46 45
f 42 43 47
f 42 47 46
f 43 44 48
f 43 48 47
f 44 41 45
f 44 45 48
o building_006
v 32.680 32.373 0.000
v 47.320 32.373 0.000
v 47.320 47.627 0.000
v 32.680 47.627 0.000
v 32.680 32.373 51.627
v 47.320 32.373 51.627
v 47.320 47.627 51.627
v 32.680 47.627 51.627
f 49 50 51
f 49 51 52
f 53 54 55
f 53 55 56
f 49 50 54
f 49 54 53
f 50 51 55
f 50 55 54
f 51 52 56
f 51 56 55
f 52 49 53
f 52 53 56
o building_007
v 32.568 56.948 0.000
v 47.432 56.948 0.000
v 47.432 71.052 0.000
v 32.568 71.052 0.000
v 32.568 56.948 41.997
v 47.432 56.948 41.997
v 47.432 71.052 41.997
v 32.568 71.052 41.997
f 57 58 59
f 57 59 60
f 61 62 63
f 61 63 64
f 57 58 62
f 57 62 61
f 58 59 63
f 58 63 62
f 59 60 64
f 59 64 63
f 60 57 61
f 60 61 64
o building_008
v 32.335 104.770 0.000
v 47.665 104.770 0.000
v 47.665 119.230 0.000
v 32.335 119.230 0.000
v 32.335 104.770 19.101
v 47.665 104.770 19.101
v 47.665 119.230 19.101
v 32.335 119.230 19.101
f 65 66 67
f 65 67 68
f 69 70 71
f 69 71 72
f 65 66 70
f 65 70 69
f 66 67 71
f 66 71 70
f 67 68 72
f 67 72 71
f 68 65 69
f 68 69 72
o building_009
v 56.064 8.018 0.000
v 71.936 8.018 0.000
v 71.936 23.982 0.000
v 56.064 23.982 0.000
v 56.064 8.018 37.818
v 71.936 8.018 37.818
v 71.936 23.982 37.818
v 56.064 23.982 37.818
f 73 74 75
f 73 75 76
f 77 78 79
f 77 79 80
f 73 74 78
f 73 78 77
f 74 75 79
f 74 79 78
f 75 76 80
f 75 80 79
f 76 73 77
f 76 77 80
o building_010
v 56.216 32.061 0.000
v 71.784 32.061 0.000
v 71.784 47.939 0.000
v 56.216 47.939 0.000
v 56.216 32.061 41.118
v 71.784 32.061 41.118
v 71.784 47.939 41.118
v 56.216 47.939 41.118
f 81 82 83
f 81 83 84
f 85 86 87
f 85 87 88
f 81 82 86
f 81 86 85
f 82 83 87
f 82 87 86
f 83 84 88
f 83 88 87
f 84 81 85
f 84 85 88
o building_011
v 56.778 56.396 0.000
v 71.222 56.396 0.000
v 71.222 62.000 0.000
v 56.778 62.000 0.000
v 56.778 56.396 31.085
v 71.222 56.396 31.085
v 71.222 62.000 31.085
v 56.778 62.000 31.085
f 89 90 91
f 89 91 92
f 93 94 95
f 93 95 96
f 89 90 94
f 89 94 93
f 90 91 95
f 90 95 94
f 91 92 96
f 91 96 95
f 92 89 93
f 92 93 96
o building_012
v 56.838 80.460 0.000
v 71.162 80.460 0.000
v 71.162 86.000 0.000
v 56.838 86.000 0.000
v 56.838 80.460 41.855
v 71.162 80.460 41.855
v 71.162 86.000 41.855
v 56.838 86.000 41.855
f 97 98 99
f 97 99 100
f 101 102 103
f 101 103 104
f 97 98 102
f 97 102 101
f 98 99 103
f 98 103 102
f 99 100 104
f 99 104 103
f 100 97 101
f 100 101 104
o building_013
v 56.503 104.451 0.000
v 71.497 104.451 0.000
v 71.497 119.549 0.000
v 56.503 119.549 0.000
v 56.503 104.451 27.967
v 71.497 104.451 27.967
v 71.497 119.549 27.967
v 56.503 119.549 27.967
f 105 106 107
f 105 107 108
f 109 110 111
f 109 111 112
f 105 106 110
f 105 110 109
f 106 107 111
f 106 111 110
f 107 108 112
f 107 112 111
f 108 105 109
f 108 109 112
o building_014
v 56.450 128.098 0.000
v 71.550 128.098 0.000
v 71.550 143.902 0.000
v 56.450 143.902 0.000
v 56.450 128.098 55.371
v 71.550 128.098 55.371
v 71.550 143.902 55.371
v 56.450 143.902 55.371
f 113 114 115
f 113 115 116
f 117 118 119
f 117 119 120
f 113 114 118
f 113 118 117
f 114 115 119
f 114 119 118
f 115 116 120
f 115 120 119
f 116 113 117
f 116 117 120
o building_015
v 80.228 8.402 0.000
v 95.772 8.402 0.000
v 95.772 23.598 0.000
v 80.228 23.598 0.000
v 80.228 8.402 27.548
v 95.772 8.402 27.548
v 95.772 23.598 27.548
v 80.228 23.598 27.548
f 121 122 123
f 121 123 124
f 125 126 127
f 125 127 128
f 121 122 126
f 121 126 125
f 122 123 127
f 122 127 126
f 123 124 128
f 123 128 127
f 124 121 125
f 124 125 128
o building_016
v 80.717 32.625 0.000
v 95.283 32.625 0.000
v 95.283 47.375 0.000
v 80.717 47.375 0.000
v 80.717 32.625 45.449
v 95.283 32.625 45.449
v 95.283 47.375 45.449
v 80.717 47.375 45.449
f 129 130 131
f 129 131 132
f 133 134 135
f 133 135 136
f 129 130 134
f 129 134 133
f 130 131 135
f 130 135 134
f 131 132 136
f 131 136 135
f 132 129 133
f 132 133 136
o building_017
v 80.817 56.715 0.000
v 95.183 56.715 0.000
v 95.183 71.285 0.000
v 80.817 71.285 0.000
v 80.817 56.715 18.460
v 95.183 56.715 18.460
v 95.183 71.285 18.460
v 80.817 71.285 18.460
f 137 138 139
f 137 139 140
f 141 142 143
f 141 143 144
f 137 138 142
f 137 142 141
f 138 139 143
f 138 143 142
f 139 140 144
f 139 144 143
f 140 137 141
f 140 141 144
o building_018
v 80.486 80.669 0.000
v 95.514 80.669 0.000
v 95.514 95.331 0.000
v 80.486 95.331 0.000
v 80.486 80.669 37.840
v 95.514 80.669 37.840
v 95.514 95.331 37.840
v 80.486 95.331 37.840
f 145 146 147
f 145 147 148
f 149 150 151
f 149 151 152
f 145 146 150
f 145 150 149
f 146 147 151
f 146 151 150
f 147 148 152
f 147 152 151
f 148 145 149
f 148 149 152
o building_019
v 80.440 104.776 0.000
v 95.560 104.776 0.000
v 95.560 119.224 0.000
v 80.440 119.224 0.000
v 80.440 104.776 19.600
v 95.560 104.776 19.600
v 95.560 119.224 19.600
v 80.440 119.224 19.600
f 153 154 155
f 153 155 156
f 157 158 159
f 157 159 160
f 153 154 158
f 153 158 157
f 154 155 159
f 154 159 158
f 155 156 160
f 155 160 159
f 156 153 157
f 156 157 160
o building_020
v 80.187 128.803 0.000
v 95.813 128.803 0.000
v 95.813 143.197 0.000
v 80.187 143.197 0.000
v 80.187 128.803 29.320
v 95.813 128.803 29.320
v 95.813 143.197 29.320
v 80.187 143.197 29.320
f 161 162 163
f 161 163 164
f 165 166 167
f 165 167 168
f 161 162 166
f 161 166 165
f 162 163 167
f 162 167 166
f 163 164 168
f 163 168 167
f 164 161 165
f 164 165 168
o building_021
v 104.915 8.772 0.000
v 119.085 8.772 0.000
v 119.085 23.228 0.000
v 104.915 23.228 0.000
v 104.915 8.772 30.910
v 119.085 8.772 30.910
v 119.085 23.228 30.910
v 104.915 23.228 30.910
f 169 170 171
f 169 171 172
f 173 174 175
f 173 175 176
f 169 170 174
f 169 174 173
f 170 171 175
f 170 175 174
f 171 172 176
f 171 176 175
f 172 169 173
f 172 173 176
o building_022
v 104.168 32.967 0.000
v 119.832 32.967 0.000
v 119.832 38.000 0.000
v 104.168 38.000 0.000
v 104.168 32.967 42.036
v 119.832 32.967 42.036
v 119.832 38.000 42.036
v 104.168 38.000 42.036
f 177 178 179
f 177 179 180
f 181 182 183
f 181 183 184
f 177 178 182
f 177 182 181
f 178 179 183
f 178 183 182
f 179 180 184
f 179 184 183
f 180 177 181
f 180 181 184
o building_023
v 104.438 56.504 0.000
v 119.562 56.504 0.000
v 119.562 71.496 0.000
v 104.438 71.496 0.000
v 104.438 56.504 49.679
v 119.562 56.504 49.679
v 119.562 71.496 49.679
v 104.438 71.496 49.679
f 185 186 187
f 185 187 188
f 189 190 191
f 189 191 192
f 185 186 190
f 185 190 189
f 186 187 191
f 186 191 190
f 187 188 192
f 187 192 191
f 188 185 189
f 188 189 192
o building_024
v 104.900 80.926 0.000
v 119.100 80.926 0.000
v 119.100 95.074 0.000
v 104.900 95.074 0.000
v 104.900 80.926 33.567
v 119.100 80.926 33.567
v 119.100 95.074 33.567
v 104.900 95.074 33.567
f 193 194 195
f 193 195 196
f 197 198 199
f 197 199 200
f 193 194 198
f 193 198 197
f 194 195 199
f 194 199 198
f 195 196 200
f 195 200 199
f 196 193 197
f 196 197 200
o building_025
v 104.957 104.362 0.000
v 119.043 104.362 0.000
v 119.043 110.000 0.000
v 104.957 110.000 0.000
v 104.957 104.362 54.934
v 119.043 104.362 54.934
v 119.043 110.000 54.934
v 104.957 110.000 54.934
f 201 202 203
f 201 203 204
f 205 206 207
f 205 207 208
f 201 202 206
f 201 206 205
f 202 203 207
f 202 207 206
f 203 204 208
f 203 208 207
f 204 201 205
f 204 205 208
o building_026
v 104.349 128.455 0.000
v 119.651 128.455 0.000
v 119.651 143.545 0.000
v 104.349 143.545 0.000
v 104.349 128.455 41.497
v 119.651 128.455 41.497
v 119.651 143.545 41.497
v 104.349 143.545 41.497
f 209 210 211
f 209 211 212
f 213 214 215
f 213 215 216
f 209 210 214
f 209 214 213
f 210 211 215
f 210 215 214
f 211 212 216
f 211 216 215
f 212 209 213
f 212 213 216
o building_027
v 128.416 8.651 0.000
v 143.584 8.651 0.000
v 143.584 14.000 0.000
v 128.416 14.000 0.000
v 128.416 8.651 22.978
v 143.584 8.651 22.978
v 143.584 14.000 22.978
v 128.416 14.000 22.978
f 217 218 219
f 217 219 220
f 221 222 223
f 221 223 224
f 217 218 222
f 217 222 221
f 218 219 223
f 218 223 222
f 219 220 224
f 219 224 223
f 220 217 221
f 220 221 224
o building_028
v 128.873 32.884 0.000
v 143.127 32.884 0.000
v 143.127 47.116 0.000
v 128.873 47.116 0.000
v 128.873 32.884 25.890
v 143.127 32.884 25.890
v 143.127 47.116 25.890
v 128.873 47.116 25.890
f 225 226 227
f 225 227 228
f 229 230 231
f 229 231 232
f 225 226 230
f 225 230 229
f 226 227 231
f 226 231 230
f 227 228 232
f 227 232 231
f 228 225 229
f 228 229 232
o building_029
v 128.438 56.757 0.000
v 143.562 56.757 0.000
v 143.562 71.243 0.000
v 128.438 71.243 0.000
v 128.438 56.757 47.693
v 143.562 56.757 47.693
v 143.562 71.243 47.693
v 128.438 71.243 47.693
f 233 234 235
f 233 235 236
f 237 238 239
f 237 239 240
f 233 234 238
f 233 238 237
f 234 235 239
f 234 239 238
f 235 236 240
f 235 240 239
f 236 233 237
f 236 237 240
o building_030
v 128.918 80.261 0.000
v 143.082 80.261 0.000
v 143.082 86.000 0.000
v 128.918 86.000 0.000
v 128.918 80.261 31.414
v 143.082 80.261 31.414
v 143.082 86.000 31.414
v 128.918 86.000 31.414
f 241 242 243
f 241 243 244
f 245 246 247
f 245 247 248
f 241 242 246
f 241 246 245
f 242 243 247
f 242 247 246
f 243 244 248
f 243 248 247
f 244 241 245
f 244 245 248
o building_031
v 128.644 104.605 0.000
v 143.356 104.605 0.000
v 143.356 119.395 0.000
v 128.644 119.395 0.000
v 128.644 104.605 52.222
v 143.356 104.605 52.222
v 143.356 119.395 52.222
v 128.644 119.395 52.222
f 249 250 251
f 249 251 252
f 253 254 255
f 253 255 256
f 249 250 254
f 249 254 253
f 250 251 255
f 250 255 254
f 251 252 256
f 251 256 255
f 252 249 253
f 252 253 256
o building_032
v 128.290 128.425 0.000
v 143.710 128.425 0.000
v 143.710 134.000 0.000
v 128.290 134.000 0.000
v 128.290 128.425 38.740
v 143.710 128.425 38.740
v 143.710 134.000 38.740
v 128.290 134.000 38.740
f 257 258 259
f 257 259 260
f 261 262 263
f 261 263 264
f 257 258 262
f 257 262 261
f 258 259 263
f 258 263 262
f 259 260 264
f 259 264 263
f 260 257 261
f 260 261 264
